<?xml version="1.0" encoding="UTF-8" standalone="no"?>
<svg
   xmlns:dc="http://purl.org/dc/elements/1.1/"
   xmlns:cc="http://creativecommons.org/ns#"
   xmlns:rdf="http://www.w3.org/1999/02/22-rdf-syntax-ns#"
   xmlns:svg="http://www.w3.org/2000/svg"
   xmlns="http://www.w3.org/2000/svg"
   viewBox="0 0 1365.3333 512"
   height="512"
   width="1365.3333"
   xml:space="preserve"
   id="svg2"
   version="1.1"><metadata
     id="metadata8"><rdf:RDF><cc:Work
         rdf:about=""><dc:format>image/svg+xml</dc:format><dc:type
           rdf:resource="http://purl.org/dc/dcmitype/StillImage" /></cc:Work></rdf:RDF></metadata><defs
     id="defs6"><clipPath
       id="clipPath18"
       clipPathUnits="userSpaceOnUse"><path
         id="path16"
         d="M 0,384 H 1024 V 0 H 0 Z" /></clipPath><clipPath
       id="clipPath354"
       clipPathUnits="userSpaceOnUse"><path
         id="path352"
         d="m 51.46,209.726 -16.802,-68.701 16.509,-45.217 47.692,-0.342 35.588,53.58 15.179,-7.902 33.931,-46.165 48.811,22.875 27.694,-17.817 58.635,17.08 36.996,-10.756 27.275,17.927 5.59,-21.58 17.751,1.254 -12.097,21.07 5.923,72.888 -220.709,-8.192 -25.946,-38.001 -17.806,11.031 -7.474,48.485 -42.024,11.451 z m 372.065,-20.924 -17.155,-84.835 82.853,5.855 3.015,83.524 -28.136,16.63 z m -17.216,-84.84 0.045,-0.077 0.016,0.082 z" /></clipPath><clipPath
       id="clipPath374"
       clipPathUnits="userSpaceOnUse"><path
         id="path372"
         d="M 0,384 H 1024 V 0 H 0 Z" /></clipPath></defs><g
     transform="matrix(1.3333333,0,0,-1.3333333,0,512)"
     id="g10"><g
       id="g12"><g
         clip-path="url(#clipPath18)"
         id="g14"><text
           id="text22"
           style="font-style:italic;font-variant:normal;font-weight:normal;font-stretch:normal;font-size:264.87231445px;font-family:Klaudia;-inkscape-font-specification:Klaudia-Oblique;writing-mode:lr-tb;fill:#37005b;fill-opacity:1;fill-rule:nonzero;stroke:none"
           transform="matrix(0.98644324,0.16410285,0.16410285,-0.98644324,508.3052,62.4053)"><tspan
             id="tspan20"
             y="0"
             x="0 204.21655 371.88074">Eat</tspan></text>
<g
           transform="translate(1021.5781,141.1279)"
           id="g24"><path
             id="path26"
             style="fill:#483a20;fill-opacity:1;fill-rule:nonzero;stroke:none"
             d="M 0,0 C 0.5,0.159 0.493,0.157 0.582,0.186 -0.65,-0.199 0.032,0.007 0,0" /></g><g
           transform="translate(1009.5225,137.0303)"
           id="g28"><path
             id="path30"
             style="fill:#483a20;fill-opacity:1;fill-rule:nonzero;stroke:none"
             d="M 0,0 0.203,0.102 -1.549,-0.574 Z" /></g><g
           transform="translate(998.2383,133.2324)"
           id="g32"><path
             id="path34"
             style="fill:#483a20;fill-opacity:1;fill-rule:nonzero;stroke:none"
             d="m 0,0 c 1.143,0.145 4.073,1.42 6.109,2.023 l 0.346,0.073 0.858,0.44 C 4.872,1.708 1.74,0.522 0,0" /></g><g
           transform="translate(992.0078,131.8164)"
           id="g36"><path
             id="path38"
             style="fill:#483a20;fill-opacity:1;fill-rule:nonzero;stroke:none"
             d="M 0,0 C 0.411,0.011 -1.277,-0.505 1.424,0.411 1.283,0.383 1.241,0.374 1.158,0.357 0.913,0.281 0.575,0.177 0,0" /></g><g
           transform="translate(993.166,132.1738)"
           id="g40"><path
             id="path42"
             style="fill:#483a20;fill-opacity:1;fill-rule:nonzero;stroke:none"
             d="M 0,0 C 1.194,0.383 -0.812,-0.159 0,0" /></g><g
           transform="translate(987.6689,130.3623)"
           id="g44"><path
             id="path46"
             style="fill:#483a20;fill-opacity:1;fill-rule:nonzero;stroke:none"
             d="M 0,0 1.537,0.603 C 1.185,0.566 -0.225,0.145 0.278,0.359 -1.318,-0.203 -0.959,-0.176 0,0" /></g><g
           transform="translate(986.2578,129.6543)"
           id="g48"><path
             id="path50"
             style="fill:#483a20;fill-opacity:1;fill-rule:nonzero;stroke:none"
             d="M 0,0 0.798,0.31 C 0.645,0.294 0.426,0.236 0,0" /></g><g
           transform="translate(988.75,130.6152)"
           id="g52"><path
             id="path54"
             style="fill:#483a20;fill-opacity:1;fill-rule:nonzero;stroke:none"
             d="M 0,0 -1.694,-0.651 C -1.448,-0.629 -1.39,-0.72 -0.913,-0.36 -1.022,-0.497 -0.712,-0.298 0,0" /></g><g
           transform="translate(989.7441,130.8838)"
           id="g56"><path
             id="path58"
             style="fill:#483a20;fill-opacity:1;fill-rule:nonzero;stroke:none"
             d="M 0,0 C 0.905,0.219 2.056,0.554 0.515,-0.06 3.503,0.963 2.996,1.002 0,0" /></g><g
           transform="translate(997.7471,132.7998)"
           id="g60"><path
             id="path62"
             style="fill:#483a20;fill-opacity:1;fill-rule:nonzero;stroke:none"
             d="M 0,0 1.192,0.341 2.179,0.767 C 1.687,0.554 -0.098,0.045 0,0" /></g><g
           transform="translate(977.79,127.4609)"
           id="g64"><path
             id="path66"
             style="fill:#483a20;fill-opacity:1;fill-rule:nonzero;stroke:none"
             d="m 0,0 c -0.069,-0.111 0.604,-0.049 0.757,-0.112 l 1.132,0.46 C 1.272,0.211 0.121,-0.095 0,0" /></g><g
           transform="translate(978.5469,127.3486)"
           id="g68"><path
             id="path70"
             style="fill:#483a20;fill-opacity:1;fill-rule:nonzero;stroke:none"
             d="M 0,0 -1.689,-0.696 C -0.132,-0.213 0.129,-0.057 0,0" /></g><g
           transform="translate(986.1035,129.2061)"
           id="g72"><path
             id="path74"
             style="fill:#483a20;fill-opacity:1;fill-rule:nonzero;stroke:none"
             d="m 0,0 2.763,1.179 -3.31,-1.366 z" /></g><g
           transform="translate(971.1318,125.4023)"
           id="g76"><path
             id="path78"
             style="fill:#483a20;fill-opacity:1;fill-rule:nonzero;stroke:none"
             d="M 0,0 0.917,0.512 -0.735,-0.347 Z" /></g><g
           transform="translate(966.7285,124)"
           id="g80"><path
             id="path82"
             style="fill:#483a20;fill-opacity:1;fill-rule:nonzero;stroke:none"
             d="m 0,0 c 0.668,0.409 -1.111,0.008 -0.377,0.358 -1.19,-0.396 -2.159,-0.874 -3.03,-1.31 C -2.456,-0.564 -1.403,-0.266 0,0" /></g><g
           transform="translate(961.8486,122.3457)"
           id="g84"><path
             id="path86"
             style="fill:#483a20;fill-opacity:1;fill-rule:nonzero;stroke:none"
             d="M 0,0 C 0.474,0.2 0.951,0.443 1.473,0.702 0.968,0.497 0.479,0.272 0,0" /></g><g
           transform="translate(973.8838,125.7451)"
           id="g88"><path
             id="path90"
             style="fill:#483a20;fill-opacity:1;fill-rule:nonzero;stroke:none"
             d="m 0,0 c -0.153,0.01 -0.459,0.062 -1.456,-0.183 l 0.77,-0.033 C -0.477,-0.149 -0.24,-0.075 0,0" /></g><g
           transform="translate(973.2246,125.5293)"
           id="g92"><path
             id="path94"
             style="fill:#483a20;fill-opacity:1;fill-rule:nonzero;stroke:none"
             d="M 0,0 H -0.026 C -0.771,-0.228 -1.288,-0.386 -1.51,-0.454 -1.319,-0.396 -0.865,-0.26 0,0" /></g><g
           transform="translate(974.0566,125.7988)"
           id="g96"><path
             id="path98"
             style="fill:#483a20;fill-opacity:1;fill-rule:nonzero;stroke:none"
             d="M 0,0 C -0.063,-0.02 -0.11,-0.034 -0.173,-0.054 -0.099,-0.058 -0.057,-0.052 0,0" /></g><g
           transform="translate(981.4932,127.8994)"
           id="g100"><path
             id="path102"
             style="fill:#483a20;fill-opacity:1;fill-rule:nonzero;stroke:none"
             d="M 0,0 C -0.979,-0.446 -3.054,-1.289 -0.937,-0.791 -0.258,-0.401 -1.472,-0.682 0,0" /></g><g
           transform="translate(975.0088,125.7715)"
           id="g104"><path
             id="path106"
             style="fill:#483a20;fill-opacity:1;fill-rule:nonzero;stroke:none"
             d="M 0,0 1.86,0.548 C 1.804,0.597 1.439,0.579 1.923,0.807 Z" /></g><g
           transform="translate(974.1328,125.3994)"
           id="g108"><path
             id="path110"
             style="fill:#483a20;fill-opacity:1;fill-rule:nonzero;stroke:none"
             d="M 0,0 0.876,0.372 0.186,0.169 Z" /></g><g
           transform="translate(965.1064,123.0762)"
           id="g112"><path
             id="path114"
             style="fill:#483a20;fill-opacity:1;fill-rule:nonzero;stroke:none"
             d="m 0,0 c -0.757,-0.375 -1.626,-0.664 -2.604,-0.998 1.076,0.279 2.177,0.6 3.213,0.933 C 0.726,0.068 1.129,0.368 0,0" /></g><g
           transform="translate(969.0596,124.2422)"
           id="g116"><path
             id="path118"
             style="fill:#483a20;fill-opacity:1;fill-rule:nonzero;stroke:none"
             d="M 0,0 C -0.054,-0.021 -0.121,-0.05 -0.172,-0.071 -0.055,-0.059 0.035,-0.038 0,0" /></g><g
           transform="translate(952.79,119.0176)"
           id="g120"><path
             id="path122"
             style="fill:#483a20;fill-opacity:1;fill-rule:nonzero;stroke:none"
             d="M 0,0 C 0.06,-0.003 0.115,-0.006 0.176,-0.01 0.182,0.013 0.185,0.034 0.193,0.059 Z" /></g><g
           transform="translate(965.9111,123.0156)"
           id="g124"><path
             id="path126"
             style="fill:#483a20;fill-opacity:1;fill-rule:nonzero;stroke:none"
             d="M 0,0 C 0.812,0.201 1.263,0.42 1.687,0.647 1.103,0.432 0.479,0.213 -0.195,-0.005 -0.247,-0.065 -0.251,-0.096 0,0" /></g><g
           transform="translate(959.1826,121.3662)"
           id="g128"><path
             id="path130"
             style="fill:#483a20;fill-opacity:1;fill-rule:nonzero;stroke:none"
             d="M 0,0 C 0.436,0.065 0.924,0.158 1.434,0.265 0.997,0.231 0.12,0.124 0,0" /></g><g
           transform="translate(968.5947,124.1602)"
           id="g132"><path
             id="path134"
             style="fill:#483a20;fill-opacity:1;fill-rule:nonzero;stroke:none"
             d="M 0,0 C 0.038,0.017 0.073,0.031 0.115,0.049 -0.165,0.023 -0.123,0.007 0,0" /></g><g
           transform="translate(968.5947,124.1602)"
           id="g136"><path
             id="path138"
             style="fill:#483a20;fill-opacity:1;fill-rule:nonzero;stroke:none"
             d="m 0,0 c -0.396,-0.168 -0.694,-0.335 -0.997,-0.497 0.476,0.175 0.915,0.346 1.29,0.508 C 0.188,-0.001 0.08,-0.004 0,0" /></g><g
           transform="translate(950.5674,115.9414)"
           id="g140"><path
             id="path142"
             style="fill:#483a20;fill-opacity:1;fill-rule:nonzero;stroke:none"
             d="M 0,0 C 0.034,0.361 2.02,1.334 3.921,1.616 5.61,2.434 4.135,2.999 2.398,3.066 2.388,2.918 2.428,2.8 0.664,2.034 1.36,2.068 4.836,2.959 3.391,2.188 1.032,1.24 1.38,1.646 0.153,1.426 1.277,1.369 -2.727,-0.142 -2.008,-0.55 L 0.035,0.356 C 0.104,0.282 -0.612,-0.118 0,0" /></g><g
           transform="translate(956.4551,120.0781)"
           id="g144"><path
             id="path146"
             style="fill:#483a20;fill-opacity:1;fill-rule:nonzero;stroke:none"
             d="M 0,0 0.739,0.272 C -0.134,0.053 -0.786,-0.026 -1.994,-0.147 -3.197,-0.682 -3.419,-0.876 -3.472,-1.002 l 3.714,1.126 z" /></g><g
           transform="translate(960.5684,121.415)"
           id="g148"><path
             id="path150"
             style="fill:#483a20;fill-opacity:1;fill-rule:nonzero;stroke:none"
             d="M 0,0 C -0.486,-0.481 -2.243,-1.193 -1.028,-1.166 1.164,-0.43 0.429,-0.418 1.699,0.137 -1.828,-1.078 2.666,0.624 0.039,-0.025 0.722,0.245 1.345,0.461 1.934,0.663 1.282,0.493 0.649,0.341 0.048,0.216 0.083,0.219 0.107,0.221 0.136,0.223 L 0.152,0.229 0.15,0.224 C 0.316,0.233 0.375,0.227 0.194,0.194 0.183,0.189 0.141,0.172 0.122,0.165 0.112,0.116 0.059,0.06 0,0.002 -1.053,-0.26 -0.189,0.028 0.122,0.165 c 0.007,0.019 0.03,0.041 0.028,0.059 0,0 -0.008,0 -0.014,-0.001 l -3.51,-1.287 C -2.605,-0.869 -1.664,-0.561 0,0" /></g><g
           transform="translate(978.835,125.9854)"
           id="g152"><path
             id="path154"
             style="fill:#483a20;fill-opacity:1;fill-rule:nonzero;stroke:none"
             d="M 0,0 C -0.116,-0.018 -0.117,0 -0.131,0.014 -0.351,-0.093 -0.431,-0.143 0,0" /></g><g
           transform="translate(977.332,125.624)"
           id="g156"><path
             id="path158"
             style="fill:#483a20;fill-opacity:1;fill-rule:nonzero;stroke:none"
             d="M 0,0 C 0.246,0.121 0.429,0.286 1.273,0.547 2.022,0.727 1.308,0.437 1.372,0.375 1.854,0.61 3.08,1.139 1.46,0.712 L 1.221,0.596 C -0.231,0.187 -2.169,-0.127 -1.932,-0.009 -1.439,-0.087 -1.02,-0.118 0,0" /></g><g
           transform="translate(968.8965,123.3389)"
           id="g160"><path
             id="path162"
             style="fill:#483a20;fill-opacity:1;fill-rule:nonzero;stroke:none"
             d="m 0,0 -2.91,-1.111 1.586,0.262 -0.125,0.118 C 0.249,-0.228 -0.173,-0.176 0,0" /></g><g
           transform="translate(952.3965,119.0742)"
           id="g164"><path
             id="path166"
             style="fill:#483a20;fill-opacity:1;fill-rule:nonzero;stroke:none"
             d="M 0,0 0.277,0.469 -1.273,-0.56 Z" /></g><g
           transform="translate(948.5508,117.8232)"
           id="g168"><path
             id="path170"
             style="fill:#483a20;fill-opacity:1;fill-rule:nonzero;stroke:none"
             d="M 0,0 0.038,0.357 -0.92,-0.146 Z" /></g><g
           transform="translate(730.1729,50.7695)"
           id="g172"><path
             id="path174"
             style="fill:#483a20;fill-opacity:1;fill-rule:nonzero;stroke:none"
             d="M 0,0 -0.863,-0.351 C -0.449,-0.212 -0.187,-0.099 0,0" /></g><g
           transform="translate(736.6738,52.127)"
           id="g176"><path
             id="path178"
             style="fill:#483a20;fill-opacity:1;fill-rule:nonzero;stroke:none"
             d="M 0,0 0.097,0.315 C -0.17,0.095 -0.268,-0.046 0,0" /></g><g
           transform="translate(853.4111,89.4336)"
           id="g180"><path
             id="path182"
             style="fill:#483a20;fill-opacity:1;fill-rule:nonzero;stroke:none"
             d="m 0,0 c -1.423,0.124 -3.073,0.484 -2.748,-0.062 l 0.56,-0.464 C -1.323,-0.171 -0.619,-0.042 0,0" /></g><g
           transform="translate(788.7432,68.0557)"
           id="g184"><path
             id="path186"
             style="fill:#483a20;fill-opacity:1;fill-rule:nonzero;stroke:none"
             d="M 0,0 C 0.139,-0.031 0.283,-0.062 0.427,-0.094 0.685,0.202 0.927,0.479 1.146,0.729 0.8,0.51 0.41,0.261 0,0" /></g><g
           transform="translate(788.4951,65.2207)"
           id="g188"><path
             id="path190"
             style="fill:#483a20;fill-opacity:1;fill-rule:nonzero;stroke:none"
             d="M 0,0 -1.808,-0.031 C -1.389,-0.074 -0.806,-0.07 0,0" /></g><g
           transform="translate(694.6953,43.1445)"
           id="g192"><path
             id="path194"
             style="fill:#483a20;fill-opacity:1;fill-rule:nonzero;stroke:none"
             d="M 0,0 -0.943,-0.785 C 0.708,-0.491 -0.075,-0.317 0,0" /></g><g
           transform="translate(909.0049,105.5215)"
           id="g196"><path
             id="path198"
             style="fill:#483a20;fill-opacity:1;fill-rule:nonzero;stroke:none"
             d="M 0,0 C -1.157,-0.151 -2.058,-0.336 -2.834,-0.545 -1.423,-0.417 -0.229,-0.49 0,0" /></g><g
           transform="translate(731.2871,57.9141)"
           id="g200"><path
             id="path202"
             style="fill:#483a20;fill-opacity:1;fill-rule:nonzero;stroke:none"
             d="M 0,0 C -0.521,-0.232 -0.727,-0.41 -0.681,-0.545 -0.142,-0.315 0.149,-0.126 0,0" /></g><g
           transform="translate(902.9922,104.0215)"
           id="g204"><path
             id="path206"
             style="fill:#483a20;fill-opacity:1;fill-rule:nonzero;stroke:none"
             d="M 0,0 C 0.209,0.011 0.407,0.044 0.617,0.063 1.396,0.385 2.187,0.69 3.179,0.955 2.137,0.86 0.975,0.654 0,0" /></g><g
           transform="translate(563.5273,33.4844)"
           id="g208"><path
             id="path210"
             style="fill:#483a20;fill-opacity:1;fill-rule:nonzero;stroke:none"
             d="M 0,0 C -0.096,0.021 -0.208,0.045 -0.295,0.064 -0.327,0.033 -0.195,0.017 0,0" /></g><g
           transform="translate(527.5137,45.5381)"
           id="g212"><path
             id="path214"
             style="fill:#483a20;fill-opacity:1;fill-rule:nonzero;stroke:none"
             d="M 0,0 C 0.312,-0.204 0.775,-0.599 1.275,-0.882 1.026,-0.75 0.658,-0.464 0,0" /></g><g
           transform="translate(932.9482,113.1846)"
           id="g216"><path
             id="path218"
             style="fill:#483a20;fill-opacity:1;fill-rule:nonzero;stroke:none"
             d="M 0,0 C 0.812,0.276 0.116,0.083 0,0" /></g><g
           transform="translate(937.4355,112.8896)"
           id="g220"><path
             id="path222"
             style="fill:#483a20;fill-opacity:1;fill-rule:nonzero;stroke:none"
             d="M 0,0 C -0.16,-0.098 -0.273,-0.195 -0.265,-0.29 -0.229,-0.177 -0.134,-0.082 0,0" /></g><g
           transform="translate(895.7617,98.5098)"
           id="g224"><path
             id="path226"
             style="fill:#483a20;fill-opacity:1;fill-rule:nonzero;stroke:none"
             d="M 0,0 C -0.024,-0.007 -0.044,-0.012 -0.071,-0.02 0.202,-0.041 0.154,-0.035 0,0" /></g><g
           transform="translate(934.2412,113.3838)"
           id="g228"><path
             id="path230"
             style="fill:#483a20;fill-opacity:1;fill-rule:nonzero;stroke:none"
             d="M 0,0 C -0.323,-0.046 -0.691,-0.114 -1.087,-0.204 -0.907,-0.183 -0.576,-0.124 0,0" /></g><g
           transform="translate(934.0146,113.5176)"
           id="g232"><path
             id="path234"
             style="fill:#483a20;fill-opacity:1;fill-rule:nonzero;stroke:none"
             d="M 0,0 C 0.288,0.072 0.514,0.128 0.729,0.182 0.812,0.277 0.706,0.291 0,0" /></g><g
           transform="translate(931.8135,112.8135)"
           id="g236"><path
             id="path238"
             style="fill:#483a20;fill-opacity:1;fill-rule:nonzero;stroke:none"
             d="M 0,0 C 0.467,0.15 0.91,0.266 1.341,0.366 1.171,0.344 1.096,0.345 1.135,0.371 0.896,0.293 0.559,0.183 0,0" /></g><g
           transform="translate(633.9668,36.1865)"
           id="g240"><path
             id="path242"
             style="fill:#483a20;fill-opacity:1;fill-rule:nonzero;stroke:none"
             d="M 0,0 C -0.059,0.009 -0.125,0.011 -0.188,0.024 -1.027,-0.272 -0.653,-0.198 0,0" /></g><g
           transform="translate(833.6572,77.25)"
           id="g244"><path
             id="path246"
             style="fill:#483a20;fill-opacity:1;fill-rule:nonzero;stroke:none"
             d="M 0,0 C 0.037,0.018 0.053,0.039 0.087,0.055 0.046,0.051 -0.005,0.046 -0.042,0.043 Z" /></g><g
           transform="translate(830.8115,75.9609)"
           id="g248"><path
             id="path250"
             style="fill:#483a20;fill-opacity:1;fill-rule:nonzero;stroke:none"
             d="M 0,0 C 1.058,1.106 1.802,1.217 2.804,1.332 L 1.339,2.78 Z" /></g><g
           transform="translate(624.4746,38.6875)"
           id="g252"><path
             id="path254"
             style="fill:#483a20;fill-opacity:1;fill-rule:nonzero;stroke:none"
             d="M 0,0 0.573,-0.072 C -0.676,-0.356 -0.336,-0.185 0,0 m 302.446,72.02 c 0.258,0.15 0.218,0.208 0.08,0.236 -0.156,-0.175 -0.775,-0.38 -1.495,-0.563 0.237,-0.062 0.621,-0.035 1.415,0.327 m -2.839,-0.65 c -0.023,-0.016 -0.039,-0.026 -0.056,-0.042 -1.396,-0.224 -0.899,-0.152 0.056,0.042 M 169.229,29.207 c -0.392,-0.345 -1.121,-0.41 -1.977,-0.349 0.558,0.204 1.213,0.345 1.977,0.349 M 121.783,15.889 c -0.578,-0.287 -1.697,-1.02 -2.239,-0.704 0.518,0.952 1.143,0.696 2.239,0.704 M 90.158,8.697 92.401,8.569 C 90.016,7.156 88.085,7.117 90.246,6.732 c -0.084,1.947 8.243,1.856 8.135,3.837 l 1.488,-0.118 c -0.406,-0.064 -0.446,-0.189 -0.848,-0.253 2.925,-0.369 1.73,1.809 5.292,2.281 1.254,0.112 2.167,0.012 1.385,-0.397 l 2.617,1.063 c 0.8,0.131 0.681,-0.249 -0.116,-0.38 l 4.114,1.054 -0.017,-0.064 c 0.523,0.435 1.758,1.206 2.366,1.553 1.115,-0.048 -0.481,-0.325 -0.158,-0.508 l 2.188,0.981 c 1.049,-0.302 -0.742,-1.215 -2.344,-1.491 2.581,-1.479 1.795,0.906 6.677,0.794 l -2.111,-0.731 c 1.652,-0.813 3.249,-0.016 5.858,-0.158 -0.666,0.233 -5.301,0.637 -2.925,1.694 0.734,0.011 1.674,0.152 2.924,0.854 0.174,-0.697 1.445,-0.226 3.075,0.189 l 0.104,-0.955 c 1.711,0.673 1.461,1.11 2.405,1.772 1.994,0.371 2.572,-0.253 3.18,-0.752 3.195,0.593 -2.454,0.645 1.243,1.698 2.71,0.267 4.468,1.07 7.467,2.394 1.912,0.123 -0.183,-0.649 0.539,-0.755 l 1.447,1.138 c 0.403,0.078 0.33,-0.181 0.292,-0.312 1.3,0.621 -0.113,0.959 1.979,1.734 0.328,1.163 4.789,-0.425 7.16,1.413 0.722,-0.101 -0.174,-0.65 0.115,-0.959 3.462,1.675 2.994,1.338 5.732,3.112 l 2.704,0.042 c -2.05,0.218 0.135,1.654 2.056,2.866 -0.75,0.167 -1.392,0.316 -1.808,0.36 l 3.214,1.349 c 0.442,-0.05 0.187,-0.453 -0.261,-0.979 0.208,0.133 0.404,0.265 0.555,0.378 1.282,-0.038 0.801,-0.729 0.077,-1.465 -0.454,0.078 -0.908,0.169 -1.351,0.263 -0.681,-0.774 -1.296,-1.596 -0.985,-2.095 0.19,0.163 0.585,0.362 1.032,0.531 -0.177,-0.208 -0.279,-0.38 -0.156,-0.447 0.139,-0.069 0.435,0.226 0.922,0.604 l 1.025,-0.838 0.079,0.457 4.542,0.486 c 2.859,1.862 5.182,4.086 10.025,5.816 -1.031,-1.077 0.059,-1.293 0.227,-2.197 -1.599,0.572 -3.736,-1.413 -6.358,-1.902 1.368,0.254 1.184,-0.25 0.881,-0.486 l 4.362,2.064 c 0.089,-0.756 1.117,-0.284 2.393,-0.26 -1.285,1.188 3.16,1.874 4.905,2.812 0.244,-0.446 -0.071,-1.055 -2.376,-1.553 2.796,-0.395 2.792,2.546 5.498,2.297 -0.552,-0.161 -0.871,-0.168 -1.024,-0.47 1.183,0.766 4.435,1.308 3.804,0.689 L 192.94,34.62 c 3.726,0.845 11.201,3.089 11.417,4.432 0.08,-0.143 -0.086,-1.56 -0.242,-1.862 l 5.449,5.79 c -0.295,-1.167 2.59,-2.93 -0.294,-4.363 0.914,0.106 2.042,0.245 3.785,1.126 -0.636,-0.031 -1.894,1.027 -1.104,1.347 2.548,-0.475 1.719,-0.152 4.739,-0.302 -0.953,-0.046 -0.402,1.799 1.023,2.151 -0.154,-0.295 0.553,-1.498 0.083,-1.808 l 3.077,2.53 c -0.798,-0.524 0.213,-1.329 1.12,-1.528 -0.448,0.187 3.042,0.858 3.932,1.288 l -1.586,-0.091 c 4.022,0.945 3.303,3.252 7.253,4.311 -0.388,-0.441 -0.628,-2.223 1.422,-1.818 0.696,1.027 2.991,4.816 6.297,6.379 l 0.791,-0.228 2.521,1.251 c -1.333,-1.571 -5.294,-5.288 -7.561,-6.991 1.578,0.109 0.56,-0.38 2.762,0.331 0.899,-0.16 -1.028,-0.972 -1.673,-1.196 l 5.227,1.321 c -0.483,0.792 3.684,2.062 3.277,2.71 l -5.333,-2.586 c -0.482,0.801 2.515,3.422 6.212,4.356 1.028,-0.055 -0.243,-1.722 -0.084,-1.982 0.388,0.436 3.294,1.624 3.691,1.52 l -1.412,-0.928 c 2.123,0.318 2.979,2.131 5.656,2.089 0.857,0.205 2.832,-0.279 2.831,0.251 -1.655,0.507 -2.803,3.342 -2.099,4.315 0.317,0.015 4.695,0.427 5.792,0.272 1.605,-0.291 -1.555,-2.361 -0.186,-2.617 -0.017,0.236 0.665,0.748 0.957,0.934 0.939,0.088 -0.159,-0.795 1.728,-0.093 0.073,0.909 3.921,1.153 0.697,0.967 1.806,0.814 2.045,0.456 4.238,1.179 -0.86,0.295 1.44,2.36 3.251,3.16 -0.05,-0.233 0.452,-0.36 0.693,-0.415 3.864,1.13 6.039,1.418 9.618,2.554 0.387,-0.076 2.18,0.262 1.545,-0.292 0.473,0.297 0.866,0.698 1.964,1.07 2.333,0.057 -2.427,-0.891 -0.56,-1.129 0.004,0.473 2.666,1.512 4.153,2.275 -0.688,0.488 -3.67,-1.033 -5.157,-1.81 -0.296,0.914 2.144,2.731 5.763,4.289 2.909,1.135 1.471,-0.163 1.949,0.12 5.628,1.623 4.283,2.975 9.121,3.807 2.01,0.052 0.418,-1.01 0.948,-1.26 -2.355,-0.974 -3.822,-0.851 -5.456,-1.391 l 2.1,0.389 c -0.713,-0.423 -2.283,-1.078 -3.213,-1.204 1.695,0.013 9.454,2.924 13.879,3.932 0.708,0.417 1.97,1.017 1.283,1.01 l -1.337,-0.511 c -1.381,-0.004 2.381,1.376 0.597,1.006 1.734,0.868 3.649,1.925 6.289,2.532 l 0.659,-0.374 c -0.107,0.137 -1.783,-0.229 -2.453,-0.621 0.997,0.571 4.173,0.564 5.12,1.629 l -1.92,-0.219 c 1.744,0.856 3.836,2.105 6.172,2.658 -1.204,0.168 -0.507,-0.224 -2.324,-0.145 1.649,-0.291 -5.853,-1.782 -3.334,-1.863 -1.897,0.184 -2.974,-0.615 -5.36,-0.657 0.127,-0.159 0.886,-0.108 -1.063,-0.605 -0.07,-0.08 -0.252,-0.21 -0.37,-0.289 -0.06,-0.012 -0.082,-0.017 -0.133,-0.027 0.041,0.004 0.072,0.007 0.113,0.011 -0.074,-0.053 -0.08,-0.061 0.042,0.005 0.483,0.059 0.885,0.079 1.067,0.025 -0.816,-0.708 -3.866,-1.652 -4.823,-2.2 -1.166,-0.268 0.405,0.365 -0.28,0.37 l -1.43,-0.818 c -0.289,0.37 -3.252,-0.233 -0.651,0.844 l -2.42,-0.724 c -1.502,-0.188 -3.493,-0.675 -4.64,-1.228 -1.171,-0.247 -2.719,-1.371 -1.839,-0.716 l -3.698,-1.436 -0.072,0.104 c -3.761,-1.063 -7.449,-3.124 -12.001,-3.536 -1.22,-0.505 -2.476,-1.043 -4.629,-1.531 l -0.547,0.314 c -1.571,-0.634 -5.001,-0.991 -5.553,-1.66 -2.118,0.686 -7.949,-2.02 -10.865,-2.637 l 0.078,-0.642 c -1.972,-0.541 -3.801,-1.261 -6.163,-2.216 l 0.316,-0.507 c -1.963,-1.069 -5.517,-1.186 -8.826,-2.198 0.162,0.284 1.023,0.466 1.658,0.51 -4.356,0.152 -8.104,-3.351 -11.988,-3.434 -0.837,-0.466 -1.509,-0.579 -2.182,-0.61 0.083,0.027 0.155,0.058 0.213,0.095 -0.093,-0.02 -0.231,-0.057 -0.371,-0.097 -0.426,-0.011 -0.87,-0.009 -1.339,-0.038 0.417,-0.038 0.812,-0.055 1.142,-0.02 -0.69,-0.208 -1.721,-0.578 -2.708,-1.019 l -0.623,0.513 c -0.082,-0.03 -0.148,-0.054 -0.233,-0.084 -1.08,-0.05 -0.726,-0.532 -0.048,-0.861 -0.488,-0.251 -0.927,-0.512 -1.251,-0.771 -1.121,0.805 -2.603,-1.123 -4.044,-0.322 -0.541,-0.735 -5.071,-1.853 -5.293,-3.163 -0.078,0.14 -0.402,0.127 0.152,0.294 -1.187,-0.193 -2.374,-0.382 -3.313,-1 l -0.724,0.7 -2.197,-1.824 c -1.671,0.091 -2.389,0.219 -1.053,1.283 -3.384,-2.003 -2.867,-1.19 -5.705,-3.045 v 0.592 c -1.107,-0.328 -2.683,-1.561 -3.482,-1.283 -2.782,0.379 -12.379,-3.195 -19.057,-3.878 1.686,-1.342 -3.178,-0.036 -3.091,-1.391 -0.477,0.298 -1.43,0.29 -0.481,0.902 -3.172,-1.238 -5.082,-0.644 -7.057,-2.329 -0.478,0.302 0.549,0.764 0.154,0.915 -0.24,-0.155 -0.95,-0.616 -1.351,-0.467 -0.395,0.151 0.392,0.458 0.865,0.765 -3.326,-0.925 -3.352,-2.232 -3.298,-3.449 -1.838,0.114 -2.665,-0.177 -3.697,-1.248 -0.688,0.226 -1.773,0.371 0.272,1.038 -1.183,-0.252 -7.292,-1.26 -7.18,-2.21 -0.427,0.144 -1.657,-0.339 -1.939,-0.524 -2.644,-0.598 -2.896,-0.575 -5.458,-1.303 l 0.754,0.025 c -0.744,-1.376 -2.089,-0.775 -4.141,-1.419 l 0.032,0.129 c -4.98,-0.353 -1.971,-0.894 -6.913,-1.111 l 0.425,-0.638 c -0.083,-1.606 -4.399,-0.106 -7.002,-1.332 l 1.084,-0.163 c -1.379,-0.869 -4.664,1.041 -6.21,0.884 -0.359,0.054 0.468,0.329 0.904,0.531 -4.141,-0.031 -0.298,-1.029 -3.184,-1.923 -0.655,0.366 0.408,1.412 -1.587,1.045 -1.07,0.161 -5.364,-2.921 -8.276,-2.585 0.679,-0.242 1.354,-0.485 0.052,-1.076 -2.065,-0.607 -5.969,0.135 -7.603,-1.453 -0.289,0.045 -0.411,0.12 -0.442,0.211 -1.535,-0.655 -5.095,-1.65 -5.925,-2.496 -1.978,2.034 -9.738,-3.259 -10.152,-1.088 l -4.914,-1.136 0.085,0.245 c -3.184,-0.517 -4.199,-1.254 -5.211,-1.978 -0.76,0 -0.265,0.303 -0.227,0.425 -4.705,-0.484 -5.136,-0.698 -8.82,-2.476 l -0.531,0.597 C 69.455,10.191 63.561,10.523 59.159,8.922 59.19,9.006 59.262,9.15 59.605,9.311 57.121,8.444 53.981,8.341 51.284,8.123 48.588,7.897 46.335,7.529 45.584,6.227 L 42.293,5.096 C 46.702,5.642 41.8,3.995 43.664,3.912 41.958,3.502 39.095,3.875 41.195,4.337 l 0.35,-0.06 C 42.135,5.582 36.033,3.811 36.026,4.639 27.414,3.194 18.913,2.589 10.815,1.562 L 11.848,0.863 9.014,0.545 C 8.249,0.638 7.944,1.048 9.963,1.281 8.851,1.594 6.627,0.457 6.587,0.287 2.598,0.14 8.025,1.405 6.811,1.281 L 5.174,1.021 5.555,0.973 C 4.258,0.485 4.176,0.129 1.744,-0.122 0.192,-0.147 0.907,0.261 0.3,0.223 0.298,0.279 0.091,0.282 -0.63,0.144 l -3.571,-0.33 1.483,-0.443 c -1.553,-0.465 -3.361,-0.324 -1.649,-0.826 -1.259,0.383 -4.599,0.158 -7.817,-0.142 -3.217,-0.286 -6.317,-0.595 -7.07,-0.517 -2.196,-0.559 -4.396,-0.674 -7.119,-0.808 0.682,-0.057 1.116,-0.635 -1.239,-0.665 0.808,1.221 -4.325,0.281 -6.243,1.027 1.709,-0.464 -6.666,-0.378 -3.996,-1.003 -1.962,0.04 -0.125,0.39 -1.613,0.607 -4.662,-0.503 -10.266,0.114 -16.015,0.163 -0.096,-0.107 0.858,-0.328 -0.385,-0.433 l -3,0.69 c -1.139,-0.012 -1.093,-0.552 -3.133,-0.043 0.284,-0.106 0.71,-0.27 -0.054,-0.242 -5.598,0.671 -11.334,1.23 -16.986,2.439 -5.627,1.206 -11.245,2.995 -16.038,6.074 1.293,-0.834 0.405,-0.323 -0.611,0.277 0.652,-0.404 -0.058,-0.057 0.047,-0.168 -1.299,0.918 -2.578,1.878 -3.703,3.002 -0.163,0.143 -0.527,0.389 -0.868,0.794 -0.349,0.402 -0.76,0.877 -1.165,1.344 -0.746,0.983 -1.356,2.016 -1.518,2.211 l 0.836,-1.272 c -0.57,0.835 -0.196,0.237 0.27,-0.567 0.522,-0.761 1.241,-1.66 1.102,-1.582 1.516,-1.668 4.188,-4.438 7.621,-6.059 0.71,-0.434 -0.657,0.276 -0.29,0.022 0.889,-0.364 1.879,-0.954 3.826,-1.832 l -0.232,0.074 c 1.36,-0.643 2.571,-1.069 3.682,-1.496 1.103,-0.453 2.152,-0.757 3.21,-1.122 1.055,-0.377 2.151,-0.691 3.386,-1.042 1.229,-0.378 2.611,-0.722 4.253,-1.103 l -0.447,0.31 c 1.409,-0.324 1.693,-0.477 2.35,-0.646 0.847,0.029 -0.157,0.178 -1.164,0.418 -1.01,0.225 -2.035,0.456 -1.263,0.469 0.448,-0.197 1.294,-0.448 2.334,-0.679 1.044,-0.213 2.279,-0.433 3.495,-0.649 2.439,-0.385 4.806,-0.722 5.418,-1.104 2.21,-0.254 -0.616,0.376 1.591,0.128 l 0.57,-0.233 0.578,0.158 c 1.444,-0.198 2.159,-0.49 2.203,-0.64 -0.352,0.043 -1.005,0.06 -1.383,0.092 1.865,-0.429 5.318,-0.409 5.961,-0.543 l -2.124,0.299 c 6.052,-0.329 13.455,-0.868 19.301,-0.407 l -0.446,0.172 c 4.453,0.397 3.58,-0.212 8.473,0.078 l -0.176,-0.049 c 0.973,0.215 2.276,0.352 3.616,0.368 -1.225,-0.276 2.348,-0.362 0.738,-0.68 4.817,0.596 2.379,0.403 5.523,1.314 l 0.757,-0.305 c 1.065,0.379 1.144,0.552 3.574,0.8 -1.978,-0.428 1.596,-0.447 -0.617,-0.983 5.191,-0.524 7.532,1.342 9.986,0.299 2.255,1.219 -4.478,0.251 -3.182,0.569 -1.127,0.25 1.872,0.917 3.481,0.947 1.63,0.131 2.896,-1.098 7.008,-0.736 -0.409,-0.03 -0.429,-0.115 -0.837,-0.143 1.568,-0.154 2.97,0.665 4.904,0.385 0.982,0.779 2.451,0.2 2.657,1.099 L 3.912,-3.298 c 2.11,0.434 3.989,1.652 7.548,1.572 -0.252,-0.211 -1.267,-0.565 -1.968,-0.775 1.056,-0.145 1.953,0.396 3.049,0.247 -0.197,-0.919 -4.539,-0.72 -6.754,-1.588 1.148,-0.27 4.253,1.066 3.214,10e-4 1.507,1.393 4.062,0.275 6.722,1.523 l -0.115,-0.563 c 0.429,0.132 1.305,0.503 2.114,0.586 L 16.35,-3.177 c 2.168,0.873 4.401,-0.021 6.514,0.563 -4.511,-0.548 -1.102,0.551 -3.062,0.725 5.454,1.427 3.393,-1.073 9.584,-0.015 -0.832,-0.189 -3.212,-0.067 -1.932,0.368 1.2,0.038 2.796,0.021 3.567,-0.189 4.102,0.683 -0.718,0.504 0.982,1.103 1.505,-0.509 1.976,0.572 3.742,1.061 l 0.104,-0.594 C 40.593,0.13 36.9,1.256 41.181,1.432 L 39.534,0.319 41.695,0.871 41.352,0.11 c 2.308,0.874 3.072,0.858 5.446,1.014 -0.616,0.355 0.124,1.154 2.185,1.519 1.472,-0.14 -0.69,-0.72 2.226,-0.157 C 50.613,1.987 49.969,1.385 48.598,1.751 48.5,1.527 48.009,1.258 47.907,1.036 49.498,0.854 51.746,1.545 52.807,1.724 52.394,1.682 51.899,1.637 51.634,1.686 l 4.101,1.56 c 0.71,-0.129 0.213,-0.406 -0.28,-0.679 0.85,0.206 1.393,0.603 2.647,0.872 C 57.865,2.867 58.039,2.344 56.288,1.804 l 3.948,1.255 c 0.311,-0.18 2.19,-0.275 1.699,-0.554 2.306,0.052 5.318,1.964 8.362,2.088 0.135,0.13 0.426,0.285 1.043,0.472 2.813,0.374 5.41,0.18 8.569,1.539 l 2.066,-0.621 c 2.543,0.708 -2.777,0.743 1.452,1.934 2.979,0.911 1.302,-0.611 2.425,-0.675 1.416,0.789 3.84,2.311 6.797,2.07 C 91.765,8.934 91.008,8.94 90.158,8.697" /></g><g
           transform="translate(788.541,65.5537)"
           id="g256"><path
             id="path258"
             style="fill:#483a20;fill-opacity:1;fill-rule:nonzero;stroke:none"
             d="M 0,0 C -0.202,0.073 -0.282,0.191 -0.356,0.312 -0.565,0.135 -0.536,-0.003 0,0" /></g><g
           transform="translate(694.8701,43.29)"
           id="g260"><path
             id="path262"
             style="fill:#483a20;fill-opacity:1;fill-rule:nonzero;stroke:none"
             d="M 0,0 -0.099,-0.01 C -0.145,-0.059 -0.166,-0.104 -0.175,-0.146 Z" /></g><g
           transform="translate(885.3887,92.8252)"
           id="g264"><path
             id="path266"
             style="fill:#483a20;fill-opacity:1;fill-rule:nonzero;stroke:none"
             d="M 0,0 C -0.596,-0.097 -0.946,-0.092 -1.191,-0.048 -1.18,-0.199 -0.884,-0.238 0,0" /></g><g
           transform="translate(941.373,115.9775)"
           id="g268"><path
             id="path270"
             style="fill:#483a20;fill-opacity:1;fill-rule:nonzero;stroke:none"
             d="m 0,0 -1.74,-0.655 c 0.851,0.286 1.188,0.29 1.643,0.359 C -0.168,-0.212 -0.553,-0.178 0,0" /></g><g
           transform="translate(957.5225,118.5703)"
           id="g272"><path
             id="path274"
             style="fill:#483a20;fill-opacity:1;fill-rule:nonzero;stroke:none"
             d="M 0,0 C 0.242,0.13 0.544,0.188 0.784,0.317 L 0.659,0.455 C -0.436,0.078 -1.158,-0.313 0,0" /></g><g
           transform="translate(943.4629,115.1436)"
           id="g276"><path
             id="path278"
             style="fill:#483a20;fill-opacity:1;fill-rule:nonzero;stroke:none"
             d="M 0,0 C 0.253,-0.295 1.324,0.181 2.543,0.641 L 2.324,0.57 C 2.536,1.149 1.264,0.578 0,0" /></g><g
           transform="translate(946.29,115.8877)"
           id="g280"><path
             id="path282"
             style="fill:#483a20;fill-opacity:1;fill-rule:nonzero;stroke:none"
             d="M 0,0 C 0.377,0.139 0.765,0.272 1.144,0.377 1.228,0.606 0.666,0.267 0,0" /></g><g
           transform="translate(930.3545,112.0498)"
           id="g284"><path
             id="path286"
             style="fill:#483a20;fill-opacity:1;fill-rule:nonzero;stroke:none"
             d="M 0,0 C 0.621,0.086 0.214,0.595 0.598,0.545 1.1,1.229 -3.147,-1.247 0,0" /></g><g
           transform="translate(944.834,114.3584)"
           id="g288"><path
             id="path290"
             style="fill:#483a20;fill-opacity:1;fill-rule:nonzero;stroke:none"
             d="M 0,0 -0.581,0.27 -1.163,-0.296 Z" /></g><g
           transform="translate(934.9561,111.4648)"
           id="g292"><path
             id="path294"
             style="fill:#483a20;fill-opacity:1;fill-rule:nonzero;stroke:none"
             d="M 0,0 2.021,0.518 C 1.967,0.583 2.204,0.707 2.502,0.841 1.276,0.461 -0.091,0.119 0,0" /></g><g
           transform="translate(937.458,112.3057)"
           id="g296"><path
             id="path298"
             style="fill:#483a20;fill-opacity:1;fill-rule:nonzero;stroke:none"
             d="M 0,0 C 0.639,0.196 1.239,0.405 1.569,0.593 1.228,0.475 0.493,0.218 0,0" /></g><g
           transform="translate(942.1748,113.335)"
           id="g300"><path
             id="path302"
             style="fill:#483a20;fill-opacity:1;fill-rule:nonzero;stroke:none"
             d="M 0,0 -0.613,-0.105 -2.019,-0.538 Z" /></g><g
           transform="translate(913.6152,104.7334)"
           id="g304"><path
             id="path306"
             style="fill:#483a20;fill-opacity:1;fill-rule:nonzero;stroke:none"
             d="M 0,0 -2.12,-0.831 C -2.283,-1.082 -1.658,-1.006 -0.874,-0.68 -0.396,-0.39 0.387,-0.068 0,0" /></g><g
           transform="translate(920.6045,105.4385)"
           id="g308"><path
             id="path310"
             style="fill:#483a20;fill-opacity:1;fill-rule:nonzero;stroke:none"
             d="m 0,0 c -0.618,-0.087 -0.693,0.013 -1.076,0.071 l 0.135,-0.646 z" /></g><g
           transform="translate(914.3516,103.2285)"
           id="g312"><path
             id="path314"
             style="fill:#483a20;fill-opacity:1;fill-rule:nonzero;stroke:none"
             d="M 0,0 C -0.159,-0.247 -2.975,-1.536 -0.247,-0.604 -0.084,-0.353 2.035,0.497 0,0" /></g><g
           transform="translate(881.4082,93.8311)"
           id="g316"><path
             id="path318"
             style="fill:#483a20;fill-opacity:1;fill-rule:nonzero;stroke:none"
             d="M 0,0 0.55,0.18 0.097,1.388 Z" /></g><g
           transform="translate(853.4131,82.0039)"
           id="g320"><path
             id="path322"
             style="fill:#483a20;fill-opacity:1;fill-rule:nonzero;stroke:none"
             d="M 0,0 C 2.678,0.45 0.373,1.013 2.825,1.307 3.34,1.803 0.821,1.066 1.364,1.525 -0.099,0.729 -0.973,0.673 0,0" /></g><g
           transform="translate(854.7773,83.5293)"
           id="g324"><path
             id="path326"
             style="fill:#483a20;fill-opacity:1;fill-rule:nonzero;stroke:none"
             d="M 0,0 C 0.234,0.127 0.48,0.27 0.737,0.438 0.31,0.222 0.115,0.095 0,0" /></g><g
           transform="translate(522.9883,49.8535)"
           id="g328"><path
             id="path330"
             style="fill:#483a20;fill-opacity:1;fill-rule:nonzero;stroke:none"
             d="M 0,0 C -0.331,0.465 -0.638,0.948 -0.962,1.422 L -0.355,0.493 C -0.235,0.329 -0.133,0.153 0,0" /></g><g
           transform="translate(521.2187,52.6367)"
           id="g332"><path
             id="path334"
             style="fill:#483a20;fill-opacity:1;fill-rule:nonzero;stroke:none"
             d="M 0,0 -0.166,0.372 -0.625,1.306 C -0.457,0.955 -0.143,0.297 0,0" /></g><g
           transform="translate(751.3955,53.752)"
           id="g336"><path
             id="path338"
             style="fill:#483a20;fill-opacity:1;fill-rule:nonzero;stroke:none"
             d="M 0,0 0.077,0.256 C -0.242,0.441 -0.643,0.369 -1.445,0.228 Z" /></g><g
           transform="translate(728.2285,49.4092)"
           id="g340"><path
             id="path342"
             style="fill:#483a20;fill-opacity:1;fill-rule:nonzero;stroke:none"
             d="M 0,0 0.4,0.065 -0.521,0.746 Z" /></g><g
           transform="translate(709.0508,44.4727)"
           id="g344"><path
             id="path346"
             style="fill:#483a20;fill-opacity:1;fill-rule:nonzero;stroke:none"
             d="M 0,0 C 0.801,0.118 1.696,0.48 2.5,0.599 0.8,0.119 -0.417,0.976 0,0" /></g></g></g><g
       id="g348"><g
         clip-path="url(#clipPath354)"
         id="g350"><g
           transform="translate(158.2178,171.2578)"
           id="g356"><path
             id="path358"
             style="fill:#007bc7;fill-opacity:1;fill-rule:nonzero;stroke:none"
             d="m 0,0 c -0.612,-0.04 -1.093,-0.539 -1.113,-1.15 -0.377,-11.631 -6.408,-16.763 -20.817,-17.716 -9.778,-0.647 -23.88,8.873 -24.338,15.807 0.458,-6.934 -10.506,-18.111 -21.931,-18.867 -10.822,-0.716 -24.757,8.816 -25.216,15.749 0.456,-6.883 -12.266,-18.227 -21.053,-18.808 -11.425,-0.756 -23.872,8.771 -24.338,15.807 0.473,-7.136 -10.506,-18.111 -21.931,-18.867 -11.425,-0.756 -23.762,8.831 -24.223,15.815 0.481,-7.289 -10.622,-18.119 -22.046,-18.874 -11.425,-0.756 -21.728,7.345 -22.969,14.82 -0.1,0.603 -0.643,1.035 -1.255,0.994 l -0.114,-0.007 c -0.612,-0.041 -1.093,-0.54 -1.113,-1.153 -0.007,-0.237 -0.029,-0.499 -0.069,-0.827 -0.008,-0.074 -0.01,-0.147 -0.005,-0.221 l 8.783,-132.834 c 0.044,-0.657 0.611,-1.154 1.269,-1.111 l 231.528,15.299 c 0.316,0.021 0.611,0.166 0.819,0.405 0.207,0.238 0.314,0.549 0.293,0.864 L 1.315,-1.108 C 1.272,-0.451 0.657,0.044 0,0" /></g><g
           transform="translate(390.5146,186.6191)"
           id="g360"><path
             id="path362"
             style="fill:#007bc7;fill-opacity:1;fill-rule:nonzero;stroke:none"
             d="m 0,0 c -0.612,-0.041 -1.093,-0.539 -1.113,-1.151 -0.377,-11.631 -6.408,-16.763 -20.817,-17.716 -9.778,-0.647 -23.88,8.873 -24.338,15.807 0.458,-6.934 -10.507,-18.111 -21.931,-18.867 -10.822,-0.715 -24.757,8.817 -25.216,15.75 0.456,-6.884 -12.266,-18.228 -21.053,-18.809 -11.425,-0.755 -23.872,8.772 -24.338,15.807 0.472,-7.136 -10.506,-18.111 -21.931,-18.867 -11.425,-0.755 -23.762,8.831 -24.223,15.816 0.481,-7.29 -10.622,-18.12 -22.046,-18.875 -11.425,-0.755 -21.728,7.346 -22.969,14.82 -0.1,0.604 -0.643,1.035 -1.255,0.995 l -0.114,-0.008 c -0.612,-0.04 -1.093,-0.539 -1.113,-1.153 -0.007,-0.236 -0.029,-0.499 -0.069,-0.826 -0.009,-0.075 -0.01,-0.148 -0.005,-0.222 l 8.783,-132.834 c 0.044,-0.657 0.611,-1.154 1.269,-1.11 l 231.528,15.298 c 0.316,0.021 0.61,0.167 0.819,0.405 0.207,0.238 0.314,0.549 0.293,0.864 L 1.315,-1.108 C 1.271,-0.452 0.657,0.043 0,0" /></g><g
           transform="translate(622.8115,201.98)"
           id="g364"><path
             id="path366"
             style="fill:#007bc7;fill-opacity:1;fill-rule:nonzero;stroke:none"
             d="m 0,0 c -0.612,-0.041 -1.094,-0.54 -1.113,-1.151 -0.377,-11.631 -6.408,-16.764 -20.817,-17.716 -9.778,-0.646 -23.88,8.873 -24.339,15.807 0.459,-6.934 -10.505,-18.111 -21.93,-18.866 -10.822,-0.716 -24.757,8.815 -25.216,15.749 0.455,-6.883 -12.267,-18.228 -21.054,-18.809 -11.424,-0.756 -23.871,8.772 -24.337,15.807 0.472,-7.136 -10.506,-18.112 -21.931,-18.866 -11.425,-0.756 -23.762,8.83 -24.223,15.814 0.481,-7.289 -10.622,-18.119 -22.046,-18.874 -11.425,-0.756 -21.728,7.346 -22.969,14.82 -0.1,0.604 -0.643,1.035 -1.255,0.994 l -0.114,-0.007 c -0.612,-0.04 -1.093,-0.539 -1.113,-1.153 -0.007,-0.237 -0.029,-0.5 -0.069,-0.827 -0.009,-0.073 -0.01,-0.147 -0.005,-0.221 l 8.783,-132.834 c 0.044,-0.657 0.611,-1.154 1.269,-1.111 l 231.528,15.3 c 0.315,0.02 0.61,0.166 0.819,0.404 0.207,0.238 0.314,0.549 0.292,0.865 L 1.315,-1.108 C 1.271,-0.452 0.656,0.043 0,0" /></g></g></g><g
       id="g368"><g
         clip-path="url(#clipPath374)"
         id="g370"><g
           transform="translate(43.7764,139.7676)"
           id="g376"><path
             id="path378"
             style="fill:#000000;fill-opacity:1;fill-rule:nonzero;stroke:none"
             d="m 0,0 c 0.845,-12.774 4.05,-22.707 9.617,-29.8 5.567,-7.093 13.09,-10.325 22.57,-9.698 16.738,1.106 29.519,9.749 38.341,25.931 8.821,16.181 12.526,34.96 11.113,56.338 C 79.964,68.115 68.235,80.067 46.454,78.627 31.395,77.631 19.602,68.598 11.077,51.525 2.549,34.452 -1.142,17.276 0,0 m -21.292,-4.245 c -1.716,25.95 3.72,48.912 16.309,68.887 12.588,19.974 29.94,30.693 52.059,32.156 17.007,1.124 30.272,-2.658 39.794,-11.345 9.52,-8.688 14.857,-21.74 16.008,-39.15 1.898,-28.706 -3.545,-52.835 -16.33,-72.382 -12.786,-19.55 -31.582,-30.145 -56.389,-31.784 -14.857,-0.983 -26.867,3.506 -36.034,13.467 -9.167,9.96 -14.305,23.344 -15.417,40.151" /></g><g
           transform="translate(223.627,199.3638)"
           id="g380"><path
             id="path382"
             style="fill:#000000;fill-opacity:1;fill-rule:nonzero;stroke:none"
             d="m 0,0 -2.442,-16.67 c -5.094,3.511 -11.71,4.998 -19.843,4.46 -12.37,-0.818 -22.047,-6.37 -29.03,-16.655 -6.983,-10.288 -10.003,-22.556 -9.06,-36.807 0.577,-8.741 3.509,-15.553 8.794,-20.436 5.287,-4.884 11.088,-7.114 17.408,-6.696 9.746,0.644 18.894,4.252 27.44,10.828 8.693,0.869 17.386,1.738 26.08,2.607 -4.52,-5.559 -25.014,-29.573 -55.458,-30.073 -6.639,-0.109 -20.771,-0.56 -31.412,9.418 -7.632,7.157 -11.865,17.057 -12.7,29.696 -1.36,20.572 3.173,37.785 13.6,51.641 10.428,13.856 24.38,21.363 41.86,22.519 C -14.412,4.516 -6.156,3.239 0,0" /></g><g
           transform="translate(251.6035,161.3594)"
           id="g384"><path
             id="path386"
             style="fill:#000000;fill-opacity:1;fill-rule:nonzero;stroke:none"
             d="m 0,0 c 5.26,-1.948 11.353,-2.692 18.276,-2.234 10.488,0.693 18.948,2.957 25.378,6.793 6.431,3.834 9.432,9.011 9.001,15.534 C 52.108,28.361 46.119,32.118 34.69,31.362 17.279,30.211 5.715,19.757 0,0 m -2.408,-14.136 c -0.391,-3.266 -0.489,-6.38 -0.294,-9.337 0.587,-8.874 3.525,-15.534 8.817,-19.976 5.289,-4.447 12.405,-6.371 21.346,-5.78 7.932,0.525 15.74,3.978 23.42,10.361 l -0.723,-19.696 c -10.521,-4.276 -19.916,-6.687 -28.184,-7.234 -27.831,-1.841 -42.779,12.836 -44.842,44.029 -1.213,18.354 3.612,34.202 14.479,47.547 C 2.478,39.123 16.783,46.382 34.531,47.556 45.22,48.263 53.909,46.541 60.598,42.393 67.286,38.243 70.912,31.935 71.472,23.464 72.25,11.698 67.887,2.092 58.388,-5.354 48.887,-12.804 36.91,-17.005 22.457,-17.961 c -9.681,-0.64 -17.969,0.635 -24.865,3.825" /></g><g
           transform="translate(390.0649,193.251)"
           id="g388"><path
             id="path390"
             style="fill:#000000;fill-opacity:1;fill-rule:nonzero;stroke:none"
             d="m 0,0 c -2.006,2.77 -8.219,3.812 -18.64,3.123 -10.622,-0.703 -19.592,-6.967 -26.913,-18.795 -7.32,-11.828 -10.42,-26.211 -9.3,-43.151 0.947,-14.322 7.807,-21.059 20.58,-20.214 6.656,0.44 12.68,4.298 18.073,11.577 5.393,7.277 8.876,16.37 10.451,27.277 z M 20.437,12.594 11.38,-51.103 c -0.369,-2.591 -0.432,-5.7 -0.192,-9.33 0.693,-10.487 2.981,-20.093 6.868,-28.816 l -19.563,-1.294 c -1.219,2.079 -2.601,5.636 -4.149,10.664 -2.907,-4.04 -7.407,-7.463 -13.501,-10.261 -6.094,-2.798 -12.637,-4.43 -19.629,-4.893 -10.623,-0.702 -19.114,1.89 -25.48,7.784 -6.365,5.892 -9.937,14.722 -10.715,26.486 -1.307,19.764 3.365,37.679 14.019,53.744 10.651,16.064 25.155,24.705 43.507,25.918 17.345,1.147 29.975,-0.955 37.892,-6.305" /></g><g
           transform="translate(471.8999,108.2197)"
           id="g392"><path
             id="path394"
             style="fill:#000000;fill-opacity:1;fill-rule:nonzero;stroke:none"
             d="m 0,0 7.139,63.57 c 0.64,5.646 0.837,10.318 0.592,14.015 -0.755,11.428 -7.083,16.75 -18.981,15.964 -4.573,-0.303 -9.375,-1.972 -14.405,-5.005 -5.033,-3.034 -8.974,-6.503 -11.822,-10.403 l -8.708,-81.196 -19.361,-1.28 9.106,82.842 c 0.212,1.903 0.233,4.134 0.065,6.69 -0.454,6.856 -1.554,12.759 -3.299,17.708 l 18.314,4.857 c 2.464,-9.696 3.691,-14.983 3.682,-15.86 7.496,11.232 18.973,17.358 34.436,18.381 19.495,1.289 29.901,-8.016 31.217,-27.916 0.262,-3.967 0.119,-8.432 -0.43,-13.397 L 20.37,1.347 Z" /></g><g
           transform="translate(216.894,117.3877)"
           id="g396"><path
             id="path398"
             style="fill:#000000;fill-opacity:1;fill-rule:nonzero;stroke:none"
             d="m 0,0 c 12.158,9.089 18.584,18.245 22.24,25.39 1.876,3.665 3.249,7.242 4.646,7.06 3.027,-0.395 3.264,-18.042 2.882,-34.563" /></g><g
           transform="translate(302.4844,122.4912)"
           id="g400"><path
             id="path402"
             style="fill:#000000;fill-opacity:1;fill-rule:nonzero;stroke:none"
             d="m 0,0 c 0,0 4.926,3.043 15.628,17.199 10.702,14.155 7.041,-24.362 7.041,-24.362 0,0 -5.198,-4.732 -23.392,-12.533" /></g></g></g></g></svg>